NotoSerifDisplay-BoldItalic.ufo
<glyph name="zero" format="2">
  <advance width="569"/>
  <unicode hex="0030"/>
  <outline>
    <contour>
      <point x="253" y="-11" type="curve" smooth="yes"/>
      <point x="487" y="-11"/>
      <point x="571" y="281"/>
      <point x="571" y="475" type="curve" smooth="yes"/>
      <point x="571" y="652"/>
      <point x="483" y="726"/>
      <point x="365" y="726" type="curve" smooth="yes"/>
      <point x="123" y="726"/>
      <point x="40" y="455"/>
      <point x="40" y="267" type="curve" smooth="yes"/>
      <point x="40" y="83"/>
      <point x="114" y="-11"/>
    </contour>
    <contour>
      <point x="244" y="-1" type="curve" smooth="yes"/>
      <point x="210" y="-1"/>
      <point x="188" y="21"/>
      <point x="188" y="132" type="curve" smooth="yes"/>
      <point x="188" y="416"/>
      <point x="274" y="715"/>
      <point x="368" y="715" type="curve" smooth="yes"/>
      <point x="405" y="715"/>
      <point x="418" y="692"/>
      <point x="418" y="580" type="curve" smooth="yes"/>
      <point x="418" y="283"/>
      <point x="344" y="-1"/>
    </contour>
  </outline>
</glyph>
<glyph name="K" format="2">
  <advance width="766"/>
  <unicode hex="004B"/>
  <anchor x="320" y="0" name="bottom"/>
  <anchor x="472" y="714" name="top"/>
  <anchor x="837" y="714" name="topright"/>
  <outline>
    <contour>
      <point x="-34" y="0" type="line"/>
      <point x="349" y="0" type="line"/>
      <point x="351" y="10" type="line"/>
      <point x="338" y="10" type="line" smooth="yes"/>
      <point x="296" y="10"/>
      <point x="264" y="13"/>
      <point x="264" y="39" type="curve" smooth="yes"/>
      <point x="264" y="43"/>
      <point x="266" y="52"/>
      <point x="269" y="66" type="curve" smooth="yes"/>
      <point x="323" y="318" type="line"/>
      <point x="412" y="396" type="line"/>
      <point x="338" y="340" type="line"/>
      <point x="402" y="171" type="line" smooth="yes"/>
      <point x="447" y="53"/>
      <point x="490" y="0"/>
      <point x="633" y="0" type="curve" smooth="yes"/>
      <point x="713" y="0" type="line"/>
      <point x="716" y="10" type="line"/>
      <point x="713" y="10" type="line" smooth="yes"/>
      <point x="697" y="10"/>
      <point x="694" y="18"/>
      <point x="648" y="128" type="curve" smooth="yes"/>
      <point x="501" y="478" type="line"/>
      <point x="437" y="416" type="line"/>
      <point x="692" y="640" type="line" smooth="yes"/>
      <point x="755" y="696"/>
      <point x="776" y="704"/>
      <point x="834" y="704" type="curve"/>
      <point x="838" y="714" type="line"/>
      <point x="565" y="714" type="line"/>
      <point x="563" y="704" type="line"/>
      <point x="646" y="704"/>
      <point x="656" y="687"/>
      <point x="656" y="662" type="curve" smooth="yes"/>
      <point x="656" y="623"/>
      <point x="610" y="582"/>
      <point x="524" y="507" type="curve" smooth="yes"/>
      <point x="326" y="333" type="line"/>
      <point x="391" y="651" type="line" smooth="yes"/>
      <point x="400" y="697"/>
      <point x="436" y="704"/>
      <point x="475" y="704" type="curve" smooth="yes"/>
      <point x="488" y="704" type="line"/>
      <point x="490" y="714" type="line"/>
      <point x="115" y="714" type="line"/>
      <point x="113" y="704" type="line"/>
      <point x="126" y="704" type="line" smooth="yes"/>
      <point x="181" y="704"/>
      <point x="196" y="697"/>
      <point x="195" y="669" type="curve" smooth="yes"/>
      <point x="195" y="660"/>
      <point x="193" y="649"/>
      <point x="190" y="636" type="curve" smooth="yes"/>
      <point x="69" y="61" type="line" smooth="yes"/>
      <point x="60" y="17"/>
      <point x="21" y="10"/>
      <point x="-19" y="10" type="curve" smooth="yes"/>
      <point x="-32" y="10" type="line"/>
    </contour>
  </outline>
</glyph>
<glyph name="N" format="2">
  <advance width="805"/>
  <unicode hex="004E"/>
  <anchor x="336" y="0" name="bottom"/>
  <anchor x="513" y="714" name="top"/>
  <anchor x="871" y="714" name="topright"/>
  <outline>
    <contour>
      <point x="-35" y="0" type="line"/>
      <point x="218" y="0" type="line"/>
      <point x="220" y="10" type="line"/>
      <point x="214" y="10" type="line" smooth="yes"/>
      <point x="152" y="10"/>
      <point x="114" y="17"/>
      <point x="114" y="41" type="curve" smooth="yes"/>
      <point x="114" y="49"/>
      <point x="115" y="57"/>
      <point x="119" y="77" type="curve" smooth="yes"/>
      <point x="241" y="649" type="line"/>
      <point x="537" y="0" type="line"/>
      <point x="607" y="0" type="line"/>
      <point x="744" y="653" type="line" smooth="yes"/>
      <point x="754" y="699"/>
      <point x="792" y="704"/>
      <point x="832" y="704" type="curve" smooth="yes"/>
      <point x="888" y="704" type="line"/>
      <point x="890" y="714" type="line"/>
      <point x="637" y="714" type="line"/>
      <point x="635" y="704" type="line"/>
      <point x="670" y="704" type="line" smooth="yes"/>
      <point x="716" y="704"/>
      <point x="733" y="694"/>
      <point x="733" y="667" type="curve" smooth="yes"/>
      <point x="733" y="660"/>
      <point x="732" y="651"/>
      <point x="730" y="641" type="curve" smooth="yes"/>
      <point x="634" y="180" type="line"/>
      <point x="402" y="714" type="line"/>
      <point x="115" y="714" type="line"/>
      <point x="113" y="704" type="line"/>
      <point x="163" y="704" type="line" smooth="yes"/>
      <point x="205" y="704"/>
      <point x="235" y="700"/>
      <point x="235" y="674" type="curve" smooth="yes"/>
      <point x="235" y="667"/>
      <point x="232" y="656"/>
      <point x="228" y="636" type="curve" smooth="yes"/>
      <point x="105" y="61" type="line" smooth="yes"/>
      <point x="96" y="17"/>
      <point x="57" y="10"/>
      <point x="16" y="10" type="curve" smooth="yes"/>
      <point x="-34" y="10" type="line"/>
    </contour>
  </outline>
</glyph>
<glyph name="bracketleft" format="2">
  <advance width="408"/>
  <unicode hex="005B"/>
  <outline>
    <contour>
      <point x="-24" y="-128" type="line"/>
      <point x="293" y="-128" type="line"/>
      <point x="295" y="-118" type="line"/>
      <point x="245" y="-118" type="line" smooth="yes"/>
      <point x="210" y="-118"/>
      <point x="185" y="-114"/>
      <point x="185" y="-77" type="curve" smooth="yes"/>
      <point x="185" y="-69"/>
      <point x="187" y="-48"/>
      <point x="191" y="-27" type="curve" smooth="yes"/>
      <point x="339" y="678" type="line"/>
      <point x="352" y="741"/>
      <point x="379" y="750"/>
      <point x="437" y="750" type="curve" smooth="yes"/>
      <point x="480" y="750" type="line"/>
      <point x="482" y="760" type="line"/>
      <point x="165" y="760" type="line"/>
    </contour>
  </outline>
</glyph>
<glyph name="underscore" format="2">
  <advance width="459"/>
  <unicode hex="005F"/>
  <outline>
    <contour>
      <point x="-93" y="-147" type="line"/>
      <point x="375" y="-147" type="line"/>
      <point x="380" y="-127" type="line"/>
      <point x="-88" y="-127" type="line"/>
    </contour>
  </outline>
</glyph>
<glyph name="v" format="2">
  <advance width="578"/>
  <unicode hex="0076"/>
  <anchor x="246" y="0" name="bottom"/>
  <anchor x="360" y="536" name="top"/>
  <anchor x="650" y="536" name="topright"/>
  <outline>
    <contour>
      <point x="158" y="-9" type="line"/>
      <point x="287" y="-1" type="line"/>
      <point x="397" y="110"/>
      <point x="562" y="298"/>
      <point x="562" y="455" type="curve" smooth="yes"/>
      <point x="562" y="518"/>
      <point x="524" y="546"/>
      <point x="477" y="546" type="curve" smooth="yes"/>
      <point x="424" y="546"/>
      <point x="400" y="506"/>
      <point x="400" y="463" type="curve"/>
      <point x="477" y="463"/>
      <point x="500" y="424"/>
      <point x="500" y="363" type="curve" smooth="yes"/>
      <point x="500" y="260"/>
      <point x="443" y="185"/>
      <point x="325" y="53" type="curve"/>
      <point x="322" y="53" type="line"/>
      <point x="318" y="91"/>
      <point x="312" y="135"/>
      <point x="306" y="177" type="curve" smooth="yes"/>
      <point x="252" y="536" type="line"/>
      <point x="22" y="536" type="line"/>
      <point x="20" y="526" type="line"/>
      <point x="30" y="526" type="line" smooth="yes"/>
      <point x="62" y="526"/>
      <point x="71" y="517"/>
      <point x="78" y="475" type="curve" smooth="yes"/>
    </contour>
  </outline>
</glyph>
<glyph name="braceleft" format="2">
  <advance width="452"/>
  <unicode hex="007B"/>
  <outline>
    <contour>
      <point x="243" y="-123" type="curve" smooth="yes"/>
      <point x="359" y="-123" type="line"/>
      <point x="362" y="-113" type="line"/>
      <point x="317" y="-113" type="line" smooth="yes"/>
      <point x="279" y="-113"/>
      <point x="265" y="-94"/>
      <point x="265" y="-69" type="curve" smooth="yes"/>
      <point x="265" y="-51"/>
      <point x="268" y="-38"/>
      <point x="272" y="-21" type="curve" smooth="yes"/>
      <point x="316" y="175" type="line" smooth="yes"/>
      <point x="318" y="184"/>
      <point x="319" y="192"/>
      <point x="319" y="200" type="curve" smooth="yes"/>
      <point x="319" y="242"/>
      <point x="290" y="309"/>
      <point x="139" y="315" type="curve"/>
      <point x="141" y="320" type="line"/>
      <point x="308" y="329"/>
      <point x="358" y="384"/>
      <point x="375" y="460" type="curve" smooth="yes"/>
      <point x="424" y="676" type="line" smooth="yes"/>
      <point x="436" y="729"/>
      <point x="446" y="750"/>
      <point x="501" y="750" type="curve" smooth="yes"/>
      <point x="547" y="750" type="line"/>
      <point x="547" y="760" type="line"/>
      <point x="430" y="760" type="line" smooth="yes"/>
      <point x="301" y="760"/>
      <point x="230" y="721"/>
      <point x="208" y="613" type="curve" smooth="yes"/>
      <point x="167" y="411" type="line" smooth="yes"/>
      <point x="153" y="341"/>
      <point x="112" y="327"/>
      <point x="34" y="327" type="curve"/>
      <point x="32" y="317" type="line"/>
      <point x="88" y="315"/>
      <point x="128" y="307"/>
      <point x="131" y="259" type="curve" smooth="yes"/>
      <point x="132" y="249"/>
      <point x="130" y="238"/>
      <point x="127" y="223" type="curve" smooth="yes"/>
      <point x="96" y="83" type="line" smooth="yes"/>
      <point x="81" y="17"/>
      <point x="82" y="3"/>
      <point x="82" y="-8" type="curve" smooth="yes"/>
      <point x="82" y="-78"/>
      <point x="135" y="-123"/>
    </contour>
  </outline>
</glyph>
<glyph name="section" format="2">
  <advance width="544"/>
  <unicode hex="00A7"/>
  <outline>
    <contour>
      <point x="225" y="-115" type="curve" smooth="yes"/>
      <point x="362" y="-115"/>
      <point x="452" y="-23"/>
      <point x="452" y="90" type="curve" smooth="yes"/>
      <point x="452" y="146"/>
      <point x="427" y="183"/>
      <point x="413" y="204" type="curve"/>
      <point x="468" y="223"/>
      <point x="529" y="262"/>
      <point x="529" y="324" type="curve" smooth="yes"/>
      <point x="529" y="385"/>
      <point x="494" y="425"/>
      <point x="388" y="480" type="curve" smooth="yes"/>
      <point x="305" y="523"/>
      <point x="269" y="545"/>
      <point x="269" y="635" type="curve" smooth="yes"/>
      <point x="269" y="715"/>
      <point x="318" y="750"/>
      <point x="365" y="750" type="curve" smooth="yes"/>
      <point x="419" y="750"/>
      <point x="442" y="704"/>
      <point x="442" y="567" type="curve"/>
      <point x="504" y="567"/>
      <point x="554" y="584"/>
      <point x="554" y="646" type="curve" smooth="yes"/>
      <point x="554" y="710"/>
      <point x="503" y="760"/>
      <point x="365" y="760" type="curve" smooth="yes"/>
      <point x="251" y="760"/>
      <point x="148" y="694"/>
      <point x="148" y="579" type="curve" smooth="yes"/>
      <point x="148" y="526"/>
      <point x="169" y="490"/>
      <point x="181" y="471" type="curve"/>
      <point x="122" y="452"/>
      <point x="74" y="418"/>
      <point x="74" y="346" type="curve" smooth="yes"/>
      <point x="74" y="289"/>
      <point x="101" y="237"/>
      <point x="216" y="178" type="curve" smooth="yes"/>
      <point x="306" y="131"/>
      <point x="346" y="107"/>
      <point x="346" y="10" type="curve" smooth="yes"/>
      <point x="346" y="-66"/>
      <point x="293" y="-105"/>
      <point x="225" y="-105" type="curve" smooth="yes"/>
      <point x="165" y="-105"/>
      <point x="140" y="-58"/>
      <point x="140" y="106" type="curve"/>
      <point x="92" y="106"/>
      <point x="23" y="88"/>
      <point x="23" y="10" type="curve" smooth="yes"/>
      <point x="23" y="-62"/>
      <point x="98" y="-115"/>
    </contour>
    <contour>
      <point x="407" y="212" type="curve"/>
      <point x="384" y="229"/>
      <point x="355" y="248"/>
      <point x="286" y="280" type="curve" smooth="yes"/>
      <point x="173" y="333"/>
      <point x="151" y="362"/>
      <point x="151" y="401" type="curve" smooth="yes"/>
      <point x="151" y="432"/>
      <point x="162" y="449"/>
      <point x="185" y="463" type="curve"/>
      <point x="212" y="428"/>
      <point x="251" y="411"/>
      <point x="317" y="379" type="curve" smooth="yes"/>
      <point x="413" y="333"/>
      <point x="438" y="304"/>
      <point x="438" y="273" type="curve" smooth="yes"/>
      <point x="438" y="249"/>
      <point x="428" y="226"/>
    </contour>
  </outline>
</glyph>
<glyph name="ordfeminine" format="2">
  <advance width="478"/>
  <unicode hex="00AA"/>
  <anchor x="252" y="381" name="bottom"/>
  <anchor x="324" y="722" name="top"/>
  <outline>
    <contour>
      <point x="178" y="381" type="curve" smooth="yes"/>
      <point x="240" y="381"/>
      <point x="296" y="431"/>
      <point x="318" y="504" type="curve"/>
      <point x="322" y="504" type="line"/>
      <point x="320" y="490"/>
      <point x="318" y="458"/>
      <point x="318" y="445" type="curve" smooth="yes"/>
      <point x="318" y="404"/>
      <point x="348" y="381"/>
      <point x="399" y="381" type="curve" smooth="yes"/>
      <point x="454" y="381"/>
      <point x="495" y="412"/>
      <point x="512" y="430" type="curve"/>
      <point x="506" y="438" type="line"/>
      <point x="491" y="425"/>
      <point x="471" y="405"/>
      <point x="447" y="405" type="curve" smooth="yes"/>
      <point x="429" y="405"/>
      <point x="426" y="415"/>
      <point x="426" y="437" type="curve" smooth="yes"/>
      <point x="426" y="446"/>
      <point x="428" y="457"/>
      <point x="435" y="495" type="curve" smooth="yes"/>
      <point x="475" y="712" type="line"/>
      <point x="432" y="712" type="line"/>
      <point x="371" y="698" type="line"/>
      <point x="357" y="709"/>
      <point x="342" y="719"/>
      <point x="309" y="719" type="curve" smooth="yes"/>
      <point x="139" y="719"/>
      <point x="74" y="589"/>
      <point x="74" y="494" type="curve" smooth="yes"/>
      <point x="74" y="432"/>
      <point x="106" y="381"/>
    </contour>
    <contour>
      <point x="241" y="419" type="curve" smooth="yes"/>
      <point x="225" y="419"/>
      <point x="213" y="430"/>
      <point x="213" y="503" type="curve" smooth="yes"/>
      <point x="213" y="599"/>
      <point x="254" y="708"/>
      <point x="315" y="708" type="curve" smooth="yes"/>
      <point x="330" y="708"/>
      <point x="346" y="705"/>
      <point x="359" y="694" type="curve"/>
      <point x="311" y="514" type="line" smooth="yes"/>
      <point x="298" y="467"/>
      <point x="266" y="419"/>
    </contour>
  </outline>
</glyph>
<glyph name="cedilla" format="2">
  <advance width="333"/>
  <unicode hex="00B8"/>
  <outline>
    <contour>
      <point x="119" y="-240" type="curve" smooth="yes"/>
      <point x="208" y="-240"/>
      <point x="285" y="-203"/>
      <point x="285" y="-125" type="curve" smooth="yes"/>
      <point x="285" y="-74"/>
      <point x="253" y="-34"/>
      <point x="135" y="-34" type="curve"/>
      <point x="154" y="9" type="line"/>
      <point x="144" y="9" type="line"/>
      <point x="123" y="-41" type="line"/>
      <point x="158" y="-46"/>
      <point x="170" y="-74"/>
      <point x="170" y="-114" type="curve" smooth="yes"/>
      <point x="170" y="-203"/>
      <point x="134" y="-224"/>
      <point x="84" y="-224" type="curve" smooth="yes"/>
      <point x="66" y="-224"/>
      <point x="43" y="-221"/>
      <point x="20" y="-216" type="curve"/>
      <point x="18" y="-226" type="line"/>
      <point x="44" y="-234"/>
      <point x="72" y="-240"/>
    </contour>
  </outline>
</glyph>
<glyph name="germandbls" format="2">
  <advance width="745"/>
  <unicode hex="00DF"/>
  <anchor x="466" y="-10" name="bottom"/>
  <anchor x="481" y="775" name="top"/>
  <outline>
    <contour>
      <point x="-85" y="-240" type="curve" smooth="yes"/>
      <point x="12" y="-240"/>
      <point x="179" y="-196"/>
      <point x="220" y="-8" type="curve" smooth="yes"/>
      <point x="345" y="570" type="line" smooth="yes"/>
      <point x="380" y="734"/>
      <point x="400" y="765"/>
      <point x="462" y="765" type="curve" smooth="yes"/>
      <point x="510" y="765"/>
      <point x="523" y="722"/>
      <point x="523" y="641" type="curve" smooth="yes"/>
      <point x="523" y="601"/>
      <point x="518" y="575"/>
      <point x="513" y="546" type="curve"/>
      <point x="455" y="546"/>
      <point x="351" y="500"/>
      <point x="351" y="393" type="curve" smooth="yes"/>
      <point x="351" y="310"/>
      <point x="406" y="275"/>
      <point x="453" y="238" type="curve" smooth="yes"/>
      <point x="500" y="201"/>
      <point x="550" y="177"/>
      <point x="550" y="79" type="curve" smooth="yes"/>
      <point x="550" y="25"/>
      <point x="523" y="0"/>
      <point x="480" y="0" type="curve" smooth="yes"/>
      <point x="436" y="0"/>
      <point x="411" y="36"/>
      <point x="411" y="199" type="curve"/>
      <point x="334" y="199"/>
      <point x="288" y="166"/>
      <point x="288" y="104" type="curve" smooth="yes"/>
      <point x="288" y="32"/>
      <point x="360" y="-10"/>
      <point x="466" y="-10" type="curve" smooth="yes"/>
      <point x="604" y="-10"/>
      <point x="707" y="67"/>
      <point x="707" y="172" type="curve" smooth="yes"/>
      <point x="707" y="249"/>
      <point x="653" y="290"/>
      <point x="603" y="326" type="curve" smooth="yes"/>
      <point x="538" y="372"/>
      <point x="511" y="386"/>
      <point x="511" y="444" type="curve" smooth="yes"/>
      <point x="511" y="506"/>
      <point x="564" y="536"/>
      <point x="646" y="536" type="curve" smooth="yes"/>
      <point x="694" y="536" type="line"/>
      <point x="701" y="563"/>
      <point x="704" y="582"/>
      <point x="704" y="617" type="curve" smooth="yes"/>
      <point x="704" y="713"/>
      <point x="620" y="775"/>
      <point x="463" y="775" type="curve" smooth="yes"/>
      <point x="311" y="775"/>
      <point x="190" y="722"/>
      <point x="152" y="568" type="curve" smooth="yes"/>
      <point x="143" y="536" type="line"/>
      <point x="62" y="536" type="line"/>
      <point x="59" y="526" type="line"/>
      <point x="140" y="526" type="line"/>
      <point x="16" y="-61" type="line" smooth="yes"/>
      <point x="-12" y="-194"/>
      <point x="-48" y="-224"/>
      <point x="-106" y="-224" type="curve" smooth="yes"/>
      <point x="-128" y="-224"/>
      <point x="-140" y="-222"/>
      <point x="-151" y="-219" type="curve"/>
      <point x="-154" y="-229" type="line"/>
      <point x="-141" y="-234"/>
      <point x="-116" y="-240"/>
    </contour>
  </outline>
</glyph>
<glyph name="eth" format="2">
  <advance width="645"/>
  <unicode hex="00F0"/>
  <anchor x="266" y="0" name="bottom"/>
  <anchor x="430" y="771" name="top"/>
  <outline>
    <contour>
      <point x="282" y="-10" type="curve" smooth="yes"/>
      <point x="508" y="-10"/>
      <point x="610" y="180"/>
      <point x="610" y="349" type="curve" smooth="yes"/>
      <point x="610" y="587"/>
      <point x="423" y="729"/>
      <point x="228" y="771" type="curve"/>
      <point x="225" y="761" type="line"/>
      <point x="342" y="727"/>
      <point x="423" y="589"/>
      <point x="423" y="434" type="curve"/>
      <point x="402" y="496"/>
      <point x="366" y="517"/>
      <point x="312" y="517" type="curve" smooth="yes"/>
      <point x="125" y="517"/>
      <point x="38" y="327"/>
      <point x="38" y="215" type="curve" smooth="yes"/>
      <point x="38" y="59"/>
      <point x="140" y="-11"/>
    </contour>
    <contour>
      <point x="300" y="0" type="curve" smooth="yes"/>
      <point x="244" y="0"/>
      <point x="225" y="53"/>
      <point x="225" y="202" type="curve" smooth="yes"/>
      <point x="225" y="385"/>
      <point x="257" y="502"/>
      <point x="330" y="502" type="curve" smooth="yes"/>
      <point x="395" y="502"/>
      <point x="420" y="441"/>
      <point x="420" y="357" type="curve" smooth="yes"/>
      <point x="420" y="98"/>
      <point x="374" y="0"/>
    </contour>
    <contour>
      <point x="209" y="580" type="line"/>
      <point x="546" y="724" type="line"/>
      <point x="551" y="739" type="line"/>
      <point x="212" y="594" type="line"/>
    </contour>
  </outline>
</glyph>
<glyph name="hbar" format="2">
  <advance width="698"/>
  <unicode hex="0127"/>
  <anchor x="292" y="0" name="bottom"/>
  <anchor x="454" y="760" name="top"/>
  <anchor x="433" y="268" name="center"/>
  <anchor x="710" y="760" name="topright"/>
  <outline>
    <contour>
      <point x="53" y="608" type="line"/>
      <point x="474" y="608" type="line"/>
      <point x="477" y="618" type="line"/>
      <point x="54" y="618" type="line"/>
    </contour>
    <component base="h"/>
  </outline>
</glyph>
<glyph name="idotless" format="2">
  <advance width="388"/>
  <unicode hex="0131"/>
  <anchor x="139" y="0" name="bottom"/>
  <anchor x="223" y="536" name="top"/>
  <anchor x="442" y="714" name="topright"/>
  <outline>
    <contour>
      <point x="207" y="-10" type="curve" smooth="yes"/>
      <point x="297" y="-10"/>
      <point x="339" y="26"/>
      <point x="373" y="66" type="curve"/>
      <point x="366" y="75" type="line"/>
      <point x="345" y="51"/>
      <point x="311" y="21"/>
      <point x="281" y="21" type="curve" smooth="yes"/>
      <point x="256" y="21"/>
      <point x="246" y="32"/>
      <point x="245" y="55" type="curve" smooth="yes"/>
      <point x="244" y="75"/>
      <point x="249" y="105"/>
      <point x="258" y="145" type="curve" smooth="yes"/>
      <point x="342" y="536" type="line"/>
      <point x="64" y="536" type="line"/>
      <point x="62" y="526" type="line"/>
      <point x="84" y="526" type="line" smooth="yes"/>
      <point x="122" y="526"/>
      <point x="130" y="517"/>
      <point x="130" y="493" type="curve" smooth="yes"/>
      <point x="130" y="473"/>
      <point x="126" y="451"/>
      <point x="121" y="428" type="curve" smooth="yes"/>
      <point x="77" y="210" type="line" smooth="yes"/>
      <point x="64" y="147"/>
      <point x="61" y="117"/>
      <point x="61" y="99" type="curve" smooth="yes"/>
      <point x="61" y="26"/>
      <point x="114" y="-10"/>
    </contour>
  </outline>
</glyph>
<glyph name="uhorn" format="2">
  <advance width="870"/>
  <unicode hex="01B0"/>
  <anchor x="378" y="0" name="bottom"/>
  <anchor x="492" y="536" name="top"/>
  <outline>
    <contour>
      <point x="536" y="-10" type="curve" smooth="yes"/>
      <point x="629" y="-10"/>
      <point x="677" y="29"/>
      <point x="712" y="69" type="curve"/>
      <point x="706" y="76" type="line"/>
      <point x="682" y="47"/>
      <point x="638" y="16"/>
      <point x="608" y="16" type="curve" smooth="yes"/>
      <point x="586" y="16"/>
      <point x="575" y="30"/>
      <point x="575" y="55" type="curve" smooth="yes"/>
      <point x="575" y="76"/>
      <point x="578" y="101"/>
      <point x="585" y="132" type="curve" smooth="yes"/>
      <point x="626" y="323" type="line"/>
      <point x="831" y="344"/>
      <point x="906" y="436"/>
      <point x="906" y="548" type="curve" smooth="yes"/>
      <point x="906" y="600"/>
      <point x="879" y="628"/>
      <point x="832" y="628" type="curve" smooth="yes"/>
      <point x="784" y="628"/>
      <point x="770" y="597"/>
      <point x="770" y="560" type="curve" smooth="yes"/>
      <point x="770" y="496"/>
      <point x="852" y="510"/>
      <point x="852" y="454" type="curve" smooth="yes"/>
      <point x="852" y="409"/>
      <point x="780" y="347"/>
      <point x="628" y="332" type="curve"/>
      <point x="672" y="536" type="line"/>
      <point x="478" y="536" type="line"/>
      <point x="411" y="234" type="line" smooth="yes"/>
      <point x="388" y="128"/>
      <point x="335" y="35"/>
      <point x="282" y="35" type="curve" smooth="yes"/>
      <point x="260" y="35"/>
      <point x="248" y="47"/>
      <point x="248" y="73" type="curve" smooth="yes"/>
      <point x="248" y="95"/>
      <point x="253" y="131"/>
      <point x="261" y="168" type="curve" smooth="yes"/>
      <point x="339" y="536" type="line"/>
      <point x="68" y="536" type="line"/>
      <point x="66" y="526" type="line"/>
      <point x="91" y="526" type="line" smooth="yes"/>
      <point x="129" y="526"/>
      <point x="132" y="517"/>
      <point x="132" y="499" type="curve" smooth="yes"/>
      <point x="132" y="488"/>
      <point x="129" y="473"/>
      <point x="123" y="440" type="curve" smooth="yes"/>
      <point x="80" y="212" type="line" smooth="yes"/>
      <point x="74" y="178"/>
      <point x="64" y="135"/>
      <point x="64" y="102" type="curve" smooth="yes"/>
      <point x="64" y="43"/>
      <point x="92" y="-9"/>
      <point x="183" y="-9" type="curve" smooth="yes"/>
      <point x="282" y="-9"/>
      <point x="359" y="38"/>
      <point x="401" y="168" type="curve"/>
      <point x="409" y="168" type="line"/>
      <point x="406" y="158"/>
      <point x="398" y="95"/>
      <point x="398" y="83" type="curve" smooth="yes"/>
      <point x="398" y="33"/>
      <point x="426" y="-10"/>
    </contour>
  </outline>
</glyph>
<glyph name="uni01E5" format="2">
  <advance width="598"/>
  <unicode hex="01E5"/>
  <anchor x="191" y="-240" name="bottom"/>
  <anchor x="365" y="580" name="top"/>
  <anchor x="691" y="536" name="topright"/>
  <outline>
    <contour>
      <point x="176" y="-111" type="line"/>
      <point x="574" y="-111" type="line"/>
      <point x="576" y="-101" type="line"/>
      <point x="178" y="-101" type="line"/>
    </contour>
    <component base="g"/>
  </outline>
</glyph>
<glyph name="uni023D" format="2">
  <advance width="689"/>
  <unicode hex="023D"/>
  <anchor x="282" y="0" name="bottom"/>
  <anchor x="434" y="714" name="top"/>
  <anchor x="367" y="357" name="center"/>
  <anchor x="667" y="714" name="topright"/>
  <outline>
    <contour>
      <point x="55" y="370" type="line"/>
      <point x="503" y="370" type="line"/>
      <point x="506" y="380" type="line"/>
      <point x="57" y="380" type="line"/>
    </contour>
    <component base="L"/>
  </outline>
</glyph>
<glyph name="uni0243" format="2">
  <advance width="696"/>
  <unicode hex="0243"/>
  <anchor x="293" y="0" name="bottom"/>
  <anchor x="445" y="714" name="top"/>
  <anchor x="766" y="714" name="topright"/>
  <outline>
    <contour>
      <point x="7" y="196" type="line"/>
      <point x="403" y="196" type="line"/>
      <point x="406" y="206" type="line"/>
      <point x="10" y="206" type="line"/>
    </contour>
    <component base="B"/>
  </outline>
</glyph>
<glyph name="circumflex" format="2">
  <advance width="453"/>
  <unicode hex="02C6"/>
  <outline>
    <contour>
      <point x="113" y="606" type="line"/>
      <point x="128" y="606" type="line"/>
      <point x="201" y="638"/>
      <point x="283" y="684"/>
      <point x="323" y="707" type="curve"/>
      <point x="354" y="682"/>
      <point x="405" y="646"/>
      <point x="472" y="606" type="curve"/>
      <point x="485" y="606" type="line"/>
      <point x="485" y="613" type="line"/>
      <point x="462" y="645"/>
      <point x="418" y="728"/>
      <point x="397" y="766" type="curve"/>
      <point x="264" y="766" type="line"/>
      <point x="221" y="718"/>
      <point x="169" y="660"/>
      <point x="113" y="613" type="curve"/>
    </contour>
  </outline>
</glyph>
<glyph name="breve" format="2">
  <advance width="419"/>
  <unicode hex="02D8"/>
  <outline>
    <contour>
      <point x="297" y="606" type="curve" smooth="yes"/>
      <point x="415" y="606"/>
      <point x="471" y="682"/>
      <point x="487" y="778" type="curve"/>
      <point x="476" y="778" type="line"/>
      <point x="452" y="730"/>
      <point x="419" y="685"/>
      <point x="307" y="685" type="curve" smooth="yes"/>
      <point x="217" y="685"/>
      <point x="170" y="732"/>
      <point x="158" y="778" type="curve"/>
      <point x="148" y="778" type="line"/>
      <point x="148" y="674"/>
      <point x="193" y="606"/>
    </contour>
  </outline>
</glyph>
<glyph name="lefttackbelowcomb" format="2">
  <unicode hex="0318"/>
  <anchor x="-57" y="0" name="_bottom"/>
  <anchor x="-102" y="-211" name="bottom"/>
  <outline>
    <contour>
      <point x="-54" y="-211" type="line"/>
      <point x="-34" y="-211" type="line"/>
      <point x="2" y="-38" type="line"/>
      <point x="-18" y="-38" type="line"/>
      <point x="-34" y="-115" type="line"/>
      <point x="-150" y="-115" type="line"/>
      <point x="-154" y="-135" type="line"/>
      <point x="-38" y="-135" type="line"/>
    </contour>
  </outline>
</glyph>
<glyph name="commaaccent" format="2">
  <unicode hex="0326"/>
  <anchor x="-52" y="0" name="_bottom"/>
  <anchor x="-79" y="-221" name="bottom"/>
  <outline>
    <contour>
      <point x="-155" y="-221" type="line"/>
      <point x="-142" y="-221" type="line"/>
      <point x="-97" y="-180"/>
      <point x="-18" y="-109"/>
      <point x="17" y="-71" type="curve"/>
      <point x="21" y="-61" type="line"/>
      <point x="-126" y="-61" type="line"/>
      <point x="-134" y="-109"/>
      <point x="-141" y="-150"/>
      <point x="-154" y="-215" type="curve"/>
    </contour>
  </outline>
</glyph>
<glyph name="almostequaltoabovecomb" format="2">
  <unicode hex="034C"/>
  <anchor x="55" y="536" name="_top"/>
  <anchor x="110" y="984" name="top"/>
  <outline>
    <contour>
      <point x="200" y="793" type="curve" smooth="yes"/>
      <point x="291" y="793"/>
      <point x="322" y="908"/>
      <point x="334" y="974" type="curve"/>
      <point x="324" y="974" type="line"/>
      <point x="319" y="947"/>
      <point x="296" y="910"/>
      <point x="248" y="910" type="curve" smooth="yes"/>
      <point x="187" y="910"/>
      <point x="128" y="984"/>
      <point x="58" y="984" type="curve" smooth="yes"/>
      <point x="-37" y="984"/>
      <point x="-75" y="869"/>
      <point x="-84" y="803" type="curve"/>
      <point x="-74" y="803" type="line"/>
      <point x="-72" y="835"/>
      <point x="-36" y="867"/>
      <point x="5" y="867" type="curve" smooth="yes"/>
      <point x="65" y="867"/>
      <point x="130" y="793"/>
    </contour>
    <contour>
      <point x="172" y="583" type="curve" smooth="yes"/>
      <point x="263" y="583"/>
      <point x="294" y="698"/>
      <point x="306" y="764" type="curve"/>
      <point x="296" y="764" type="line"/>
      <point x="291" y="737"/>
      <point x="268" y="700"/>
      <point x="220" y="700" type="curve" smooth="yes"/>
      <point x="159" y="700"/>
      <point x="100" y="774"/>
      <point x="30" y="774" type="curve" smooth="yes"/>
      <point x="-65" y="774"/>
      <point x="-103" y="660"/>
      <point x="-111" y="593" type="curve"/>
      <point x="-101" y="593" type="line"/>
      <point x="-99" y="626"/>
      <point x="-64" y="657"/>
      <point x="-22" y="657" type="curve" smooth="yes"/>
      <point x="37" y="657"/>
      <point x="103" y="583"/>
    </contour>
  </outline>
</glyph>
<glyph name="arrowupbelowcomb" format="2">
  <unicode hex="034E"/>
  <anchor x="-56" y="0" name="_bottom"/>
  <anchor x="-108" y="-240" name="bottom"/>
  <outline>
    <contour>
      <point x="-113" y="-220" type="line"/>
      <point x="-93" y="-220" type="line"/>
      <point x="-70" y="-110" type="line"/>
      <point x="-30" y="-110" type="line"/>
      <point x="-61" y="-20" type="line"/>
      <point x="-130" y="-110" type="line"/>
      <point x="-90" y="-110" type="line"/>
    </contour>
  </outline>
</glyph>
<glyph name="asteriskbelowcomb" format="2">
  <unicode hex="0359"/>
  <anchor x="-57" y="0" name="_bottom"/>
  <anchor x="-84" y="-245" name="bottom"/>
  <outline>
    <contour>
      <point x="-76" y="-245" type="line"/>
      <point x="-82" y="-148" type="line"/>
      <point x="-13" y="-233" type="line"/>
      <point x="28" y="-184" type="line"/>
      <point x="-74" y="-138" type="line"/>
      <point x="38" y="-138" type="line"/>
      <point x="21" y="-75" type="line"/>
      <point x="-78" y="-124" type="line"/>
      <point x="-32" y="-39" type="line"/>
      <point x="-96" y="-25" type="line"/>
      <point x="-90" y="-122" type="line"/>
      <point x="-159" y="-37" type="line"/>
      <point x="-200" y="-86" type="line"/>
      <point x="-98" y="-132" type="line"/>
      <point x="-210" y="-132" type="line"/>
      <point x="-193" y="-195" type="line"/>
      <point x="-94" y="-145" type="line"/>
      <point x="-140" y="-231" type="line"/>
    </contour>
  </outline>
</glyph>
<glyph name="pamphyliandigamma" format="2">
  <advance width="731"/>
  <unicode hex="0377"/>
  <anchor x="300" y="0" name="bottom"/>
  <anchor x="414" y="536" name="top"/>
  <outline>
    <contour>
      <point x="554" y="-14" type="curve" smooth="yes"/>
      <point x="647" y="-14"/>
      <point x="677" y="22"/>
      <point x="690" y="47" type="curve"/>
      <point x="647" y="47"/>
      <point x="603" y="73"/>
      <point x="603" y="179" type="curve" smooth="yes"/>
      <point x="603" y="313"/>
      <point x="657" y="474"/>
      <point x="689" y="536" type="curve"/>
      <point x="540" y="536" type="line"/>
      <point x="239" y="83" type="line"/>
      <point x="341" y="536" type="line"/>
      <point x="65" y="536" type="line"/>
      <point x="62" y="525" type="line"/>
      <point x="73" y="525" type="line" smooth="yes"/>
      <point x="89" y="525"/>
      <point x="131" y="520"/>
      <point x="133" y="480" type="curve"/>
      <point x="133" y="474"/>
      <point x="132" y="468"/>
      <point x="131" y="462" type="curve"/>
      <point x="32" y="0" type="line"/>
      <point x="196" y="0" type="line"/>
      <point x="541" y="520" type="line"/>
      <point x="481" y="392"/>
      <point x="409" y="241"/>
      <point x="409" y="133" type="curve" smooth="yes"/>
      <point x="409" y="35"/>
      <point x="467" y="-14"/>
    </contour>
  </outline>
</glyph>
<glyph name="Sigma" format="2">
  <advance width="657"/>
  <unicode hex="03A3"/>
  <anchor x="272" y="0" name="bottom"/>
  <anchor x="424" y="714" name="top"/>
  <outline>
    <contour>
      <point x="-13" y="0" type="line"/>
      <point x="563" y="0" type="line"/>
      <point x="625" y="269" type="line"/>
      <point x="615" y="269" type="line"/>
      <point x="605" y="239" type="line" smooth="yes"/>
      <point x="580" y="163"/>
      <point x="536" y="144"/>
      <point x="474" y="144" type="curve" smooth="yes"/>
      <point x="91" y="144" type="line"/>
      <point x="427" y="424" type="line"/>
      <point x="428" y="434" type="line"/>
      <point x="324" y="704" type="line"/>
      <point x="548" y="704" type="line" smooth="yes"/>
      <point x="613" y="704"/>
      <point x="647" y="680"/>
      <point x="647" y="631" type="curve" smooth="yes"/>
      <point x="647" y="610"/>
      <point x="643" y="571"/>
      <point x="635" y="522" type="curve"/>
      <point x="645" y="522" type="line"/>
      <point x="680" y="714" type="line"/>
      <point x="136" y="714" type="line"/>
      <point x="132" y="704" type="line"/>
      <point x="281" y="314" type="line"/>
      <point x="2" y="82" type="line"/>
    </contour>
  </outline>
</glyph>
<glyph name="theta" format="2">
  <advance width="666"/>
  <unicode hex="03B8"/>
  <anchor x="283" y="0" name="bottom"/>
  <anchor x="445" y="764" name="top"/>
  <anchor x="764" y="764" name="topright"/>
  <outline>
    <contour>
      <point x="295.671" y="-10.585" type="curve" smooth="yes"/>
      <point x="559" y="-12"/>
      <point x="647" y="297"/>
      <point x="647" y="501" type="curve" smooth="yes"/>
      <point x="647" y="688"/>
      <point x="558" y="761"/>
      <point x="416.788" y="764.566" type="curve" smooth="yes"/>
      <point x="144" y="771"/>
      <point x="54" y="480"/>
      <point x="54" y="282" type="curve" smooth="yes"/>
      <point x="54" y="88"/>
      <point x="132" y="-10"/>
    </contour>
    <contour>
      <point x="288" y="0" type="curve" smooth="yes"/>
      <point x="252" y="0"/>
      <point x="229" y="23"/>
      <point x="229" y="140" type="curve" smooth="yes"/>
      <point x="229" y="439"/>
      <point x="320" y="754"/>
      <point x="419" y="754" type="curve" smooth="yes"/>
      <point x="458" y="754"/>
      <point x="472" y="730"/>
      <point x="472" y="612" type="curve" smooth="yes"/>
      <point x="472" y="299"/>
      <point x="394" y="0"/>
    </contour>
    <contour>
      <point x="176" y="384" type="line"/>
      <point x="540" y="384" type="line"/>
      <point x="540" y="394" type="line"/>
      <point x="176" y="394" type="line"/>
    </contour>
  </outline>
</glyph>
<glyph name="kappa" format="2">
  <advance width="644"/>
  <unicode hex="03BA"/>
  <anchor x="265" y="0" name="bottom"/>
  <anchor x="379" y="536" name="top"/>
  <outline>
    <contour>
      <point x="585" y="-7" type="curve" smooth="yes"/>
      <point x="600" y="-7" type="line"/>
      <point x="603" y="3" type="line"/>
      <point x="598" y="3" type="line" smooth="yes"/>
      <point x="569" y="3"/>
      <point x="557" y="16"/>
      <point x="535" y="85" type="curve" smooth="yes"/>
      <point x="431" y="409" type="line"/>
      <point x="359" y="307" type="line"/>
      <point x="456" y="434"/>
      <point x="474" y="462"/>
      <point x="527" y="462" type="curve" smooth="yes"/>
      <point x="562" y="462"/>
      <point x="586" y="440"/>
      <point x="586" y="390" type="curve"/>
      <point x="640" y="393"/>
      <point x="663" y="423"/>
      <point x="663" y="475" type="curve" smooth="yes"/>
      <point x="663" y="509"/>
      <point x="640" y="545"/>
      <point x="594" y="545" type="curve" smooth="yes"/>
      <point x="538" y="545"/>
      <point x="520" y="531"/>
      <point x="408" y="391" type="curve" smooth="yes"/>
      <point x="319" y="279" type="line" smooth="yes"/>
      <point x="247" y="196" type="line"/>
      <point x="258" y="231"/>
      <point x="273" y="297"/>
      <point x="279" y="323" type="curve" smooth="yes"/>
      <point x="326" y="536" type="line"/>
      <point x="52" y="536" type="line"/>
      <point x="50" y="526" type="line"/>
      <point x="75" y="526" type="line" smooth="yes"/>
      <point x="113" y="526"/>
      <point x="117" y="515"/>
      <point x="117" y="497" type="curve" smooth="yes"/>
      <point x="117" y="483"/>
      <point x="112" y="462"/>
      <point x="106" y="435" type="curve" smooth="yes"/>
      <point x="15" y="0" type="line"/>
      <point x="207" y="0" type="line"/>
      <point x="247" y="181" type="line"/>
      <point x="358" y="306" type="line"/>
      <point x="298" y="248" type="line"/>
      <point x="336" y="104" type="line" smooth="yes"/>
      <point x="361" y="11"/>
      <point x="427" y="-7"/>
    </contour>
  </outline>
</glyph>
<glyph name="phi" format="2">
  <advance width="802"/>
  <unicode hex="03C6"/>
  <anchor x="289" y="-240" name="bottom"/>
  <anchor x="452" y="549" name="top"/>
  <anchor x="834" y="549" name="topright"/>
  <outline>
    <contour>
      <point x="263" y="-240" type="line"/>
      <point x="313" y="-240" type="line"/>
      <point x="361" y="-14" type="line"/>
      <point x="598" y="-14"/>
      <point x="759" y="93"/>
      <point x="759" y="332" type="curve" smooth="yes"/>
      <point x="759" y="465"/>
      <point x="685" y="549"/>
      <point x="540" y="549" type="curve" smooth="yes"/>
      <point x="440" y="549"/>
      <point x="408" y="487"/>
      <point x="389" y="388" type="curve" smooth="yes"/>
      <point x="312" y="-4" type="line"/>
      <point x="260" y="10"/>
      <point x="225" y="62"/>
      <point x="225" y="152" type="curve" smooth="yes"/>
      <point x="225" y="282"/>
      <point x="267" y="468"/>
      <point x="354" y="534" type="curve"/>
      <point x="344" y="541" type="line"/>
      <point x="165" y="515"/>
      <point x="40" y="418"/>
      <point x="40" y="226" type="curve" smooth="yes"/>
      <point x="40" y="65"/>
      <point x="155" y="0"/>
      <point x="311" y="-14" type="curve"/>
    </contour>
    <contour>
      <point x="362" y="-4" type="curve"/>
      <point x="450" y="427" type="line" smooth="yes"/>
      <point x="466" y="507"/>
      <point x="485" y="539"/>
      <point x="524" y="539" type="curve" smooth="yes"/>
      <point x="562" y="539"/>
      <point x="577" y="503"/>
      <point x="577" y="397" type="curve" smooth="yes"/>
      <point x="577" y="277"/>
      <point x="527" y="-4"/>
    </contour>
  </outline>
</glyph>
<glyph name="psi" format="2">
  <advance width="733"/>
  <unicode hex="03C8"/>
  <anchor x="298" y="-240" name="bottom"/>
  <anchor x="511" y="760" name="top"/>
  <outline>
    <contour>
      <point x="273" y="-240" type="line"/>
      <point x="323" y="-240" type="line"/>
      <point x="372" y="-8" type="line"/>
      <point x="585" y="2"/>
      <point x="688" y="241"/>
      <point x="688" y="407" type="curve" smooth="yes"/>
      <point x="688" y="480"/>
      <point x="659" y="546"/>
      <point x="595" y="546" type="curve" smooth="yes"/>
      <point x="547" y="546"/>
      <point x="520" y="506"/>
      <point x="517" y="459" type="curve"/>
      <point x="574" y="459"/>
      <point x="616" y="443"/>
      <point x="616" y="322" type="curve" smooth="yes"/>
      <point x="616" y="117"/>
      <point x="516" y="12"/>
      <point x="375" y="2" type="curve"/>
      <point x="536" y="760" type="line"/>
      <point x="486" y="760" type="line"/>
      <point x="323" y="1" type="line"/>
      <point x="267" y="12"/>
      <point x="240" y="40"/>
      <point x="240" y="103" type="curve" smooth="yes"/>
      <point x="240" y="152"/>
      <point x="253" y="222"/>
      <point x="273" y="321" type="curve" smooth="yes"/>
      <point x="316" y="536" type="line"/>
      <point x="60" y="536" type="line"/>
      <point x="58" y="526" type="line"/>
      <point x="83" y="526" type="line" smooth="yes"/>
      <point x="120" y="526"/>
      <point x="122" y="509"/>
      <point x="122" y="491" type="curve" smooth="yes"/>
      <point x="122" y="477"/>
      <point x="121" y="468"/>
      <point x="115" y="437" type="curve" smooth="yes"/>
      <point x="94" y="329" type="line" smooth="yes"/>
      <point x="87" y="293"/>
      <point x="78" y="249"/>
      <point x="78" y="200" type="curve" smooth="yes"/>
      <point x="78" y="75"/>
      <point x="161" y="2"/>
      <point x="322" y="-9" type="curve"/>
    </contour>
  </outline>
</glyph>
<glyph name="uni048F" format="2">
  <advance width="660"/>
  <unicode hex="048F"/>
  <anchor x="81" y="-240" name="bottom"/>
  <anchor x="386" y="536" name="top"/>
  <anchor x="719" y="536" name="topright"/>
  <outline>
    <contour>
      <point x="414" y="-65" type="line"/>
      <point x="420" y="-59" type="line"/>
      <point x="288" y="129" type="line"/>
      <point x="281" y="123" type="line"/>
    </contour>
    <component base="p"/>
  </outline>
</glyph>
<glyph name="uni04B9" format="2">
  <advance width="688"/>
  <unicode hex="04B9"/>
  <anchor x="286" y="0" name="bottom"/>
  <anchor x="400" y="536" name="top"/>
  <outline>
    <contour>
      <point x="277" y="124" type="line"/>
      <point x="287" y="124" type="line"/>
      <point x="337" y="363" type="line"/>
      <point x="327" y="363" type="line"/>
    </contour>
    <component base="afii10089"/>
  </outline>
</glyph>
<glyph name="uni1D03" format="2">
  <advance width="614"/>
  <unicode hex="1D03"/>
  <anchor x="277" y="0" name="bottom"/>
  <anchor x="370" y="536" name="top"/>
  <outline>
    <contour>
      <point x="56" y="279" type="line"/>
      <point x="613" y="279" type="line"/>
      <point x="615" y="289" type="line"/>
      <point x="57" y="289" type="line"/>
    </contour>
    <component base="uni0299"/>
  </outline>
</glyph>
<glyph name="uni1D06" format="2">
  <advance width="696"/>
  <unicode hex="1D06"/>
  <anchor x="293" y="0" name="bottom"/>
  <anchor x="407" y="536" name="top"/>
  <outline>
    <contour>
      <point x="66" y="278" type="line"/>
      <point x="371" y="278" type="line"/>
      <point x="373" y="288" type="line"/>
      <point x="69" y="288" type="line"/>
    </contour>
    <component base="uni1D05"/>
  </outline>
</glyph>
<glyph name="uni1D09" format="2">
  <advance width="424"/>
  <unicode hex="1D09"/>
  <anchor x="111" y="-214" name="bottom"/>
  <anchor x="270" y="536" name="top"/>
  <outline>
    <contour>
      <point x="-1" y="0" type="line"/>
      <point x="326" y="0" type="line"/>
      <point x="328" y="10" type="line"/>
      <point x="301" y="10" type="line" smooth="yes"/>
      <point x="278" y="10"/>
      <point x="262" y="20"/>
      <point x="262" y="41" type="curve" smooth="yes"/>
      <point x="262" y="45"/>
      <point x="264" y="57"/>
      <point x="269" y="77" type="curve" smooth="yes"/>
      <point x="366" y="496" type="line" smooth="yes"/>
      <point x="372" y="521"/>
      <point x="400" y="526"/>
      <point x="426" y="526" type="curve" smooth="yes"/>
      <point x="449" y="526" type="line"/>
      <point x="450" y="536" type="line"/>
      <point x="122" y="536" type="line"/>
      <point x="121" y="526" type="line"/>
      <point x="148" y="526" type="line" smooth="yes"/>
      <point x="165" y="526"/>
      <point x="185" y="526"/>
      <point x="185" y="503" type="curve" smooth="yes"/>
      <point x="185" y="493"/>
      <point x="179" y="474"/>
      <point x="174" y="453" type="curve" smooth="yes"/>
      <point x="77" y="39" type="line" smooth="yes"/>
      <point x="71" y="13"/>
      <point x="48" y="10"/>
      <point x="22" y="10" type="curve" smooth="yes"/>
      <point x="1" y="10" type="line"/>
    </contour>
    <contour>
      <point x="135" y="-214" type="curve" smooth="yes"/>
      <point x="188" y="-214"/>
      <point x="240" y="-182"/>
      <point x="240" y="-127" type="curve" smooth="yes"/>
      <point x="240" y="-78"/>
      <point x="198" y="-60"/>
      <point x="155" y="-60" type="curve" smooth="yes"/>
      <point x="102" y="-60"/>
      <point x="52" y="-81"/>
      <point x="52" y="-147" type="curve" smooth="yes"/>
      <point x="52" y="-193"/>
      <point x="89" y="-214"/>
    </contour>
  </outline>
</glyph>
<glyph name="uni1D7D" format="2">
  <advance width="672"/>
  <unicode hex="1D7D"/>
  <anchor x="106" y="-240" name="bottom"/>
  <anchor x="411" y="536" name="top"/>
  <anchor x="719" y="536" name="topright"/>
  <outline>
    <contour>
      <point x="-15" y="287" type="line"/>
      <point x="711" y="287" type="line"/>
      <point x="713" y="297" type="line"/>
      <point x="-13" y="297" type="line"/>
    </contour>
    <component base="p"/>
  </outline>
</glyph>
<glyph name="ll-middleWelsh" format="2">
  <advance width="744"/>
  <unicode hex="1EFB"/>
  <anchor x="317" y="0" name="bottom"/>
  <anchor x="333" y="268" name="center"/>
  <anchor x="429" y="760" name="top"/>
  <anchor x="786" y="760" name="topright"/>
  <outline>
    <contour>
      <point x="178" y="-10" type="curve" smooth="yes"/>
      <point x="293" y="-10"/>
      <point x="376" y="53"/>
      <point x="444" y="120" type="curve"/>
      <point x="436" y="127" type="line"/>
      <point x="379" y="70"/>
      <point x="308" y="21"/>
      <point x="250" y="21" type="curve" smooth="yes"/>
      <point x="228" y="21"/>
      <point x="214" y="30"/>
      <point x="214" y="61" type="curve" smooth="yes"/>
      <point x="214" y="85"/>
      <point x="216" y="100"/>
      <point x="226" y="146" type="curve" smooth="yes"/>
      <point x="365" y="760" type="line"/>
      <point x="87" y="760" type="line"/>
      <point x="85" y="750" type="line"/>
      <point x="112" y="750" type="line" smooth="yes"/>
      <point x="150" y="750"/>
      <point x="153" y="737"/>
      <point x="153" y="719" type="curve" smooth="yes"/>
      <point x="153" y="707"/>
      <point x="149" y="687"/>
      <point x="145" y="670" type="curve" smooth="yes"/>
      <point x="50" y="217" type="line" smooth="yes"/>
      <point x="37" y="154"/>
      <point x="33" y="127"/>
      <point x="33" y="102" type="curve" smooth="yes"/>
      <point x="33" y="29"/>
      <point x="85" y="-10"/>
    </contour>
    <contour>
      <point x="52" y="586" type="line"/>
      <point x="793" y="586" type="line"/>
      <point x="796" y="596" type="line"/>
      <point x="55" y="596" type="line"/>
    </contour>
    <component base="l" xOffset="370"/>
  </outline>
</glyph>
<glyph name="Yloop" format="2">
  <advance width="715"/>
  <unicode hex="1EFE"/>
  <anchor x="158" y="-60" name="bottom"/>
  <anchor x="451" y="714" name="top"/>
  <outline>
    <contour>
      <point x="158" y="-60" type="curve" smooth="yes"/>
      <point x="261" y="-60"/>
      <point x="321" y="2"/>
      <point x="417" y="168" type="curve" smooth="yes"/>
      <point x="651" y="575" type="line" smooth="yes"/>
      <point x="713" y="682"/>
      <point x="743" y="704"/>
      <point x="782" y="704" type="curve" smooth="yes"/>
      <point x="814" y="704" type="line"/>
      <point x="815" y="714" type="line"/>
      <point x="558" y="714" type="line"/>
      <point x="556" y="704" type="line"/>
      <point x="573" y="704" type="line" smooth="yes"/>
      <point x="646" y="704"/>
      <point x="673" y="693"/>
      <point x="674" y="664" type="curve" smooth="yes"/>
      <point x="675" y="635"/>
      <point x="646" y="587"/>
      <point x="605" y="516" type="curve" smooth="yes"/>
      <point x="501" y="335" type="line" smooth="yes"/>
      <point x="488" y="312"/>
      <point x="485" y="307"/>
      <point x="476" y="288" type="curve"/>
      <point x="466" y="331"/>
      <point x="455" y="371"/>
      <point x="441" y="417" type="curve" smooth="yes"/>
      <point x="384" y="610" type="line" smooth="yes"/>
      <point x="378" y="629"/>
      <point x="377" y="638"/>
      <point x="377" y="653" type="curve" smooth="yes"/>
      <point x="377" y="684"/>
      <point x="391" y="704"/>
      <point x="440" y="704" type="curve" smooth="yes"/>
      <point x="481" y="704" type="line"/>
      <point x="483" y="714" type="line"/>
      <point x="107" y="714" type="line"/>
      <point x="105" y="704" type="line"/>
      <point x="129" y="704" type="line" smooth="yes"/>
      <point x="156" y="704"/>
      <point x="157" y="689"/>
      <point x="170" y="651" type="curve" smooth="yes"/>
      <point x="335" y="163" type="line"/>
      <point x="295" y="222"/>
      <point x="235" y="241"/>
      <point x="172" y="241" type="curve" smooth="yes"/>
      <point x="51" y="241"/>
      <point x="-12" y="172"/>
      <point x="-12" y="81" type="curve" smooth="yes"/>
      <point x="-12" y="-5"/>
      <point x="44" y="-60"/>
    </contour>
    <contour>
      <point x="158" y="-50" type="curve" smooth="yes"/>
      <point x="90" y="-50"/>
      <point x="-1" y="-24"/>
      <point x="-1" y="81" type="curve" smooth="yes"/>
      <point x="-1" y="178"/>
      <point x="70" y="231"/>
      <point x="172" y="231" type="curve" smooth="yes"/>
      <point x="209" y="231"/>
      <point x="312" y="231"/>
      <point x="359" y="94" type="curve"/>
      <point x="350" y="80" type="line" smooth="yes"/>
      <point x="296" y="-4"/>
      <point x="238" y="-50"/>
    </contour>
  </outline>
</glyph>
<glyph name="quotereversed" format="2">
  <advance width="302"/>
  <unicode hex="201B"/>
  <outline>
    <contour>
      <point x="283" y="391" type="curve"/>
      <point x="286" y="401" type="line"/>
      <point x="248" y="419"/>
      <point x="191" y="445"/>
      <point x="191" y="499" type="curve" smooth="yes"/>
      <point x="191" y="594"/>
      <point x="319" y="551"/>
      <point x="319" y="647" type="curve" smooth="yes"/>
      <point x="319" y="682"/>
      <point x="298" y="714"/>
      <point x="259" y="714" type="curve" smooth="yes"/>
      <point x="187" y="714"/>
      <point x="149" y="644"/>
      <point x="149" y="575" type="curve" smooth="yes"/>
      <point x="149" y="478"/>
      <point x="186" y="420"/>
    </contour>
  </outline>
</glyph>
<glyph name="dagger" format="2">
  <advance width="500"/>
  <unicode hex="2020"/>
  <outline>
    <contour>
      <point x="174" y="-111" type="curve"/>
      <point x="184" y="-111" type="line"/>
      <point x="230" y="112"/>
      <point x="313" y="289"/>
      <point x="362" y="360" type="curve"/>
      <point x="318" y="510" type="line"/>
      <point x="510" y="445" type="line"/>
      <point x="540" y="583" type="line"/>
      <point x="320" y="520" type="line"/>
      <point x="438" y="760" type="line"/>
      <point x="290" y="760" type="line"/>
      <point x="310" y="520" type="line"/>
      <point x="110" y="583" type="line"/>
      <point x="80" y="445" type="line"/>
      <point x="308" y="510" type="line"/>
      <point x="194" y="360" type="line"/>
      <point x="210" y="289"/>
      <point x="216" y="113"/>
    </contour>
  </outline>
</glyph>
<glyph name="daggerdbl" format="2">
  <advance width="500"/>
  <unicode hex="2021"/>
  <outline>
    <contour>
      <point x="102" y="-111" type="line"/>
      <point x="250" y="-111" type="line"/>
      <point x="220" y="60" type="line"/>
      <point x="414" y="-1" type="line"/>
      <point x="443" y="137" type="line"/>
      <point x="220" y="70" type="line"/>
      <point x="331" y="222" type="line"/>
      <point x="300" y="228"/>
      <point x="262" y="261"/>
      <point x="274" y="326" type="curve" smooth="yes"/>
      <point x="286" y="391"/>
      <point x="338" y="422"/>
      <point x="374" y="427" type="curve"/>
      <point x="328" y="576" type="line"/>
      <point x="522" y="512" type="line"/>
      <point x="552" y="650" type="line"/>
      <point x="328" y="586" type="line"/>
      <point x="435" y="760" type="line"/>
      <point x="287" y="760" type="line"/>
      <point x="319" y="586" type="line"/>
      <point x="121" y="650" type="line"/>
      <point x="92" y="512" type="line"/>
      <point x="318" y="576" type="line"/>
      <point x="206" y="427" type="line"/>
      <point x="237" y="421"/>
      <point x="275" y="390"/>
      <point x="264" y="327" type="curve" smooth="yes"/>
      <point x="253" y="264"/>
      <point x="200" y="230"/>
      <point x="163" y="222" type="curve"/>
      <point x="210" y="70" type="line"/>
      <point x="14" y="137" type="line"/>
      <point x="-15" y="-1" type="line"/>
      <point x="210" y="60" type="line"/>
    </contour>
  </outline>
</glyph>
<glyph name="referencemark" format="2">
  <advance width="819"/>
  <unicode hex="203B"/>
  <outline>
    <contour>
      <point x="428" y="538" type="curve" smooth="yes"/>
      <point x="480" y="538"/>
      <point x="524" y="560"/>
      <point x="524" y="627" type="curve" smooth="yes"/>
      <point x="524" y="693"/>
      <point x="480" y="714"/>
      <point x="428" y="714" type="curve" smooth="yes"/>
      <point x="376" y="714"/>
      <point x="335" y="693"/>
      <point x="335" y="627" type="curve" smooth="yes"/>
      <point x="335" y="560"/>
      <point x="376" y="538"/>
    </contour>
    <contour>
      <point x="680" y="269" type="curve" smooth="yes"/>
      <point x="732" y="269"/>
      <point x="776" y="291"/>
      <point x="776" y="358" type="curve" smooth="yes"/>
      <point x="776" y="423"/>
      <point x="732" y="445"/>
      <point x="680" y="445" type="curve" smooth="yes"/>
      <point x="628" y="445"/>
      <point x="587" y="423"/>
      <point x="587" y="358" type="curve" smooth="yes"/>
      <point x="587" y="291"/>
      <point x="628" y="269"/>
    </contour>
    <contour>
      <point x="428" y="0" type="curve" smooth="yes"/>
      <point x="480" y="0"/>
      <point x="524" y="22"/>
      <point x="524" y="89" type="curve" smooth="yes"/>
      <point x="524" y="155"/>
      <point x="480" y="176"/>
      <point x="428" y="176" type="curve" smooth="yes"/>
      <point x="376" y="176"/>
      <point x="335" y="155"/>
      <point x="335" y="89" type="curve" smooth="yes"/>
      <point x="335" y="22"/>
      <point x="376" y="0"/>
    </contour>
    <contour>
      <point x="174" y="269" type="curve" smooth="yes"/>
      <point x="226" y="269"/>
      <point x="270" y="291"/>
      <point x="270" y="358" type="curve" smooth="yes"/>
      <point x="270" y="423"/>
      <point x="226" y="445"/>
      <point x="174" y="445" type="curve" smooth="yes"/>
      <point x="122" y="445"/>
      <point x="81" y="423"/>
      <point x="81" y="358" type="curve" smooth="yes"/>
      <point x="81" y="291"/>
      <point x="122" y="269"/>
    </contour>
    <contour>
      <point x="118" y="33" type="line"/>
      <point x="428" y="346" type="line"/>
      <point x="740" y="33" type="line"/>
      <point x="753" y="45" type="line"/>
      <point x="442" y="359" type="line"/>
      <point x="753" y="671" type="line"/>
      <point x="740" y="684" type="line"/>
      <point x="428" y="372" type="line"/>
      <point x="117" y="684" type="line"/>
      <point x="104" y="671" type="line"/>
      <point x="416" y="359" type="line"/>
      <point x="104" y="46" type="line"/>
    </contour>
  </outline>
</glyph>
<glyph name="zerosuperior" format="2">
  <advance width="400"/>
  <unicode hex="2070"/>
  <outline>
    <contour>
      <point x="227" y="381" type="curve" smooth="yes"/>
      <point x="397" y="381"/>
      <point x="441" y="589"/>
      <point x="441" y="678" type="curve" smooth="yes"/>
      <point x="441" y="761"/>
      <point x="410" y="826"/>
      <point x="312" y="826" type="curve" smooth="yes"/>
      <point x="164" y="826"/>
      <point x="101" y="657"/>
      <point x="101" y="519" type="curve" smooth="yes"/>
      <point x="101" y="453"/>
      <point x="132" y="381"/>
    </contour>
    <contour>
      <point x="222" y="391" type="curve" smooth="yes"/>
      <point x="203" y="391"/>
      <point x="195" y="413"/>
      <point x="195" y="453" type="curve" smooth="yes"/>
      <point x="195" y="591"/>
      <point x="269" y="816"/>
      <point x="322" y="816" type="curve" smooth="yes"/>
      <point x="339" y="816"/>
      <point x="350" y="804"/>
      <point x="350" y="764" type="curve" smooth="yes"/>
      <point x="350" y="657"/>
      <point x="281" y="391"/>
    </contour>
  </outline>
</glyph>
<glyph name="cadauna" format="2">
  <advance width="822"/>
  <unicode hex="2106"/>
  <outline>
    <contour>
      <point x="225" y="375" type="curve" smooth="yes"/>
      <point x="336" y="375"/>
      <point x="359" y="422"/>
      <point x="359" y="444" type="curve" smooth="yes"/>
      <point x="359" y="457"/>
      <point x="349" y="480"/>
      <point x="323" y="480" type="curve"/>
      <point x="304" y="405"/>
      <point x="282" y="385"/>
      <point x="248" y="385" type="curve" smooth="yes"/>
      <point x="204" y="385"/>
      <point x="186" y="424"/>
      <point x="186" y="510" type="curve" smooth="yes"/>
      <point x="186" y="609"/>
      <point x="220" y="704"/>
      <point x="274" y="704" type="curve" smooth="yes"/>
      <point x="295" y="704"/>
      <point x="305" y="692"/>
      <point x="305" y="671" type="curve" smooth="yes"/>
      <point x="305" y="626"/>
      <point x="290" y="599"/>
      <point x="286" y="584" type="curve"/>
      <point x="365" y="584"/>
      <point x="403" y="617"/>
      <point x="403" y="656" type="curve" smooth="yes"/>
      <point x="403" y="690"/>
      <point x="360" y="714"/>
      <point x="274" y="714" type="curve" smooth="yes"/>
      <point x="171" y="714"/>
      <point x="68" y="647"/>
      <point x="68" y="508" type="curve" smooth="yes"/>
      <point x="68" y="424"/>
      <point x="120" y="375"/>
    </contour>
    <contour>
      <point x="100" y="0" type="line"/>
      <point x="112" y="0" type="line"/>
      <point x="624" y="714" type="line"/>
      <point x="612" y="714" type="line"/>
    </contour>
    <contour>
      <point x="472" y="-2" type="curve" smooth="yes"/>
      <point x="525" y="-2"/>
      <point x="571" y="19"/>
      <point x="593" y="78" type="curve"/>
      <point x="595" y="78" type="line"/>
      <point x="594" y="69"/>
      <point x="593" y="62"/>
      <point x="593" y="55" type="curve" smooth="yes"/>
      <point x="593" y="14"/>
      <point x="618" y="-1"/>
      <point x="673" y="-1" type="curve" smooth="yes"/>
      <point x="714" y="-1"/>
      <point x="753" y="17"/>
      <point x="779" y="43" type="curve"/>
      <point x="773" y="51" type="line"/>
      <point x="750" y="31"/>
      <point x="734" y="20"/>
      <point x="714" y="20" type="curve" smooth="yes"/>
      <point x="705" y="20"/>
      <point x="700" y="24"/>
      <point x="700" y="34" type="curve" smooth="yes"/>
      <point x="700" y="40"/>
      <point x="707" y="75"/>
      <point x="709" y="84" type="curve" smooth="yes"/>
      <point x="759" y="323" type="line"/>
      <point x="636" y="323" type="line"/>
      <point x="591" y="105" type="line" smooth="yes"/>
      <point x="582" y="61"/>
      <point x="554" y="21"/>
      <point x="518" y="21" type="curve" smooth="yes"/>
      <point x="500" y="21"/>
      <point x="498" y="33"/>
      <point x="498" y="46" type="curve" smooth="yes"/>
      <point x="498" y="56"/>
      <point x="499" y="65"/>
      <point x="501" y="75" type="curve" smooth="yes"/>
      <point x="555" y="323" type="line"/>
      <point x="397" y="323" type="line"/>
      <point x="394" y="313" type="line"/>
      <point x="402" y="313" type="line" smooth="yes"/>
      <point x="414" y="313"/>
      <point x="423" y="308"/>
      <point x="423" y="299" type="curve" smooth="yes"/>
      <point x="423" y="292"/>
      <point x="423" y="289"/>
      <point x="419" y="270" type="curve" smooth="yes"/>
      <point x="393" y="140" type="line" smooth="yes"/>
      <point x="385" y="101"/>
      <point x="385" y="86"/>
      <point x="385" y="71" type="curve" smooth="yes"/>
      <point x="385" y="31"/>
      <point x="405" y="-2"/>
    </contour>
  </outline>
</glyph>
<glyph name="planckconstantovertwopi" format="2">
  <advance width="721"/>
  <unicode hex="210F"/>
  <anchor x="319" y="0" name="bottom"/>
  <anchor x="433" y="268" name="center"/>
  <anchor x="481" y="760" name="top"/>
  <anchor x="710" y="760" name="topright"/>
  <outline>
    <contour>
      <point x="40" y="510" type="line"/>
      <point x="450" y="660" type="line"/>
      <point x="453" y="672" type="line"/>
      <point x="43" y="520" type="line"/>
    </contour>
    <component base="h"/>
  </outline>
</glyph>
<glyph name="prescription" format="2">
  <advance width="862"/>
  <unicode hex="211E"/>
  <outline>
    <contour>
      <point x="-25" y="0" type="line"/>
      <point x="265" y="0" type="line"/>
      <point x="328" y="306" type="line"/>
      <point x="383" y="306" type="line"/>
      <point x="499" y="110" type="line"/>
      <point x="404" y="31" type="line" smooth="yes"/>
      <point x="387" y="17"/>
      <point x="372" y="10"/>
      <point x="339" y="10" type="curve" smooth="yes"/>
      <point x="303" y="10" type="line"/>
      <point x="302" y="0" type="line"/>
      <point x="386" y="0" type="line"/>
      <point x="503" y="102" type="line"/>
      <point x="511" y="89" type="line" smooth="yes"/>
      <point x="550" y="24"/>
      <point x="613" y="-2"/>
      <point x="738" y="0" type="curve" smooth="yes"/>
      <point x="794" y="0" type="line"/>
      <point x="797" y="10" type="line"/>
      <point x="793" y="10" type="line" smooth="yes"/>
      <point x="784" y="10"/>
      <point x="748" y="66"/>
      <point x="713" y="118" type="curve" smooth="yes"/>
      <point x="645" y="220" type="line"/>
      <point x="745" y="303" type="line" smooth="yes"/>
      <point x="794" y="343"/>
      <point x="813" y="361"/>
      <point x="842" y="361" type="curve" smooth="yes"/>
      <point x="857" y="361" type="line"/>
      <point x="859" y="371" type="line"/>
      <point x="810" y="371" type="line"/>
      <point x="640" y="228" type="line"/>
      <point x="563" y="344" type="line"/>
      <point x="617" y="356"/>
      <point x="739" y="412"/>
      <point x="739" y="537" type="curve" smooth="yes"/>
      <point x="739" y="665"/>
      <point x="660" y="714"/>
      <point x="485" y="714" type="curve" smooth="yes"/>
      <point x="124" y="714" type="line"/>
      <point x="122" y="704" type="line"/>
      <point x="176" y="704" type="line" smooth="yes"/>
      <point x="199" y="704"/>
      <point x="205" y="691"/>
      <point x="205" y="676" type="curve" smooth="yes"/>
      <point x="205" y="667"/>
      <point x="203" y="657"/>
      <point x="201" y="648" type="curve" smooth="yes"/>
      <point x="80" y="65" type="line" smooth="yes"/>
      <point x="70" y="16"/>
      <point x="53" y="10"/>
      <point x="33" y="10" type="curve" smooth="yes"/>
      <point x="-23" y="10" type="line"/>
    </contour>
    <contour>
      <point x="332" y="316" type="line"/>
      <point x="415" y="704" type="line"/>
      <point x="447" y="704" type="line" smooth="yes"/>
      <point x="500" y="704"/>
      <point x="524" y="655"/>
      <point x="524" y="586" type="curve" smooth="yes"/>
      <point x="524" y="437"/>
      <point x="468" y="316"/>
      <point x="368" y="316" type="curve" smooth="yes"/>
    </contour>
  </outline>
</glyph>
<glyph name="gimelsymbol" format="2">
  <advance width="450"/>
  <unicode hex="2137"/>
  <outline>
    <contour>
      <point x="11" y="-26" type="line"/>
      <point x="161" y="53" type="line" smooth="yes"/>
      <point x="193" y="70"/>
      <point x="225" y="97"/>
      <point x="232" y="147" type="curve"/>
      <point x="263" y="0" type="line"/>
      <point x="413" y="0" type="line"/>
      <point x="352" y="205" type="line" smooth="yes"/>
      <point x="343" y="237"/>
      <point x="336" y="263"/>
      <point x="336" y="286" type="curve" smooth="yes"/>
      <point x="336" y="397" type="line" smooth="yes"/>
      <point x="336" y="482"/>
      <point x="326" y="539"/>
      <point x="233" y="559" type="curve" smooth="yes"/>
      <point x="49" y="599" type="line"/>
      <point x="49" y="468" type="line"/>
      <point x="131" y="448" type="line" smooth="yes"/>
      <point x="167" y="439"/>
      <point x="179" y="426"/>
      <point x="179" y="386" type="curve" smooth="yes"/>
      <point x="179" y="309" type="line" smooth="yes"/>
      <point x="179" y="218"/>
      <point x="134" y="196"/>
      <point x="11" y="126" type="curve"/>
    </contour>
  </outline>
</glyph>
<glyph name="Mhook" format="2">
  <advance width="975"/>
  <unicode hex="2C6E"/>
  <anchor x="377" y="-240" name="bottom"/>
  <anchor x="580" y="714" name="top"/>
  <outline>
    <contour>
      <point x="445" y="-240" type="line"/>
      <point x="537" y="-240" type="line" smooth="yes"/>
      <point x="634" y="-240"/>
      <point x="761" y="-202"/>
      <point x="803" y="-8" type="curve"/>
      <point x="940" y="651" type="line" smooth="yes"/>
      <point x="950" y="697"/>
      <point x="990" y="704"/>
      <point x="1032" y="704" type="curve" smooth="yes"/>
      <point x="1045" y="704" type="line"/>
      <point x="1047" y="714" type="line"/>
      <point x="751" y="714" type="line"/>
      <point x="510" y="211" type="line"/>
      <point x="428" y="714" type="line"/>
      <point x="125" y="714" type="line"/>
      <point x="123" y="704" type="line"/>
      <point x="173" y="704" type="line" smooth="yes"/>
      <point x="215" y="704"/>
      <point x="244" y="700"/>
      <point x="244" y="674" type="curve" smooth="yes"/>
      <point x="244" y="667"/>
      <point x="242" y="661"/>
      <point x="237" y="636" type="curve" smooth="yes"/>
      <point x="116" y="65" type="line" smooth="yes"/>
      <point x="106" y="19"/>
      <point x="69" y="10"/>
      <point x="28" y="10" type="curve" smooth="yes"/>
      <point x="-24" y="10" type="line"/>
      <point x="-25" y="0" type="line"/>
      <point x="228" y="0" type="line"/>
      <point x="230" y="10" type="line"/>
      <point x="224" y="10" type="line" smooth="yes"/>
      <point x="154" y="10"/>
      <point x="124" y="12"/>
      <point x="124" y="48" type="curve" smooth="yes"/>
      <point x="124" y="55"/>
      <point x="125" y="63"/>
      <point x="127" y="73" type="curve" smooth="yes"/>
      <point x="258" y="685" type="line"/>
      <point x="359" y="0" type="line"/>
      <point x="419" y="0" type="line"/>
      <point x="752" y="689" type="line"/>
      <point x="591" y="-82" type="line"/>
      <point x="565" y="-208"/>
      <point x="534" y="-230"/>
      <point x="468" y="-230" type="curve" smooth="yes"/>
      <point x="447" y="-230" type="line"/>
    </contour>
  </outline>
</glyph>
<glyph name="turnedcomma" format="2">
  <advance width="325"/>
  <unicode hex="2E32"/>
  <outline>
    <contour>
      <point x="202" y="-151" type="curve"/>
      <point x="205" y="-141" type="line"/>
      <point x="149" y="-120"/>
      <point x="96" y="-94"/>
      <point x="96" y="-36" type="curve" smooth="yes"/>
      <point x="96" y="33"/>
      <point x="241" y="-9"/>
      <point x="241" y="102" type="curve" smooth="yes"/>
      <point x="241" y="145"/>
      <point x="210" y="172"/>
      <point x="173" y="172" type="curve" smooth="yes"/>
      <point x="110" y="172"/>
      <point x="66" y="114"/>
      <point x="66" y="25" type="curve" smooth="yes"/>
      <point x="66" y="-69"/>
      <point x="99" y="-119"/>
    </contour>
  </outline>
</glyph>
<glyph name="daggerwithleftguard" format="2">
  <advance width="502"/>
  <unicode hex="2E36"/>
  <outline>
    <contour>
      <point x="172" y="-111" type="curve"/>
      <point x="182" y="-111" type="line"/>
      <point x="238" y="131"/>
      <point x="314" y="286"/>
      <point x="362" y="360" type="curve"/>
      <point x="309" y="505" type="line"/>
      <point x="438" y="760" type="line"/>
      <point x="290" y="760" type="line"/>
      <point x="298" y="515" type="line"/>
      <point x="110" y="583" type="line"/>
      <point x="80" y="445" type="line"/>
      <point x="298" y="505" type="line"/>
      <point x="194" y="360" type="line"/>
      <point x="209" y="300"/>
      <point x="218" y="131"/>
    </contour>
  </outline>
</glyph>
<glyph name="uniA684" format="2">
  <advance width="1363"/>
  <unicode hex="A684"/>
  <anchor x="253" y="0" name="bottom_1"/>
  <anchor x="909" y="0" name="bottom_2"/>
  <anchor x="405" y="714" name="top_1"/>
  <anchor x="1061" y="714" name="top_2"/>
  <outline>
    <contour>
      <point x="306" y="368" type="line"/>
      <point x="765" y="368" type="line"/>
      <point x="765" y="378" type="line"/>
      <point x="306" y="378" type="line"/>
    </contour>
    <component base="afii10025"/>
    <component base="afii10028" xOffset="567"/>
  </outline>
</glyph>
<glyph name="uniA741" format="2">
  <advance width="625"/>
  <unicode hex="A741"/>
  <anchor x="252" y="0" name="bottom"/>
  <anchor x="414" y="760" name="top"/>
  <anchor x="669" y="760" name="topright"/>
  <outline>
    <contour>
      <point x="62" y="611" type="line"/>
      <point x="426" y="611" type="line"/>
      <point x="429" y="621" type="line"/>
      <point x="65" y="621" type="line"/>
    </contour>
    <component base="k"/>
  </outline>
</glyph>
<glyph name="uniA748" format="2">
  <advance width="689"/>
  <unicode hex="A748"/>
  <anchor x="272" y="0" name="bottom"/>
  <anchor x="367" y="357" name="center"/>
  <anchor x="319" y="714" name="top"/>
  <anchor x="667" y="714" name="topright"/>
  <outline>
    <contour>
      <point x="96" y="555" type="line"/>
      <point x="481" y="555" type="line"/>
      <point x="483" y="565" type="line"/>
      <point x="99" y="565" type="line"/>
    </contour>
    <component base="L"/>
  </outline>
</glyph>
<glyph name="uniA7A2" format="2">
  <advance width="783"/>
  <unicode hex="A7A2"/>
  <anchor x="329" y="0" name="bottom"/>
  <anchor x="481" y="714" name="top"/>
  <anchor x="837" y="714" name="topright"/>
  <outline>
    <contour>
      <point x="-4" y="153" type="line"/>
      <point x="752" y="287" type="line"/>
      <point x="755" y="298" type="line"/>
      <point x="0" y="164" type="line"/>
    </contour>
    <component base="K"/>
  </outline>
</glyph>
<glyph name="uniAB4F" format="2">
  <advance width="726"/>
  <unicode hex="AB4F"/>
  <outline>
    <contour>
      <point x="15" y="272" type="line"/>
      <point x="685" y="272" type="line"/>
      <point x="688" y="282" type="line"/>
      <point x="18" y="282" type="line"/>
    </contour>
    <component base="uniAB4E"/>
  </outline>
</glyph>
<glyph name="uniFE21" format="2">
  <unicode hex="FE21"/>
  <anchor x="57" y="536" name="_top"/>
  <outline>
    <contour>
      <point x="443" y="592" type="curve"/>
      <point x="453" y="592" type="line"/>
      <point x="418" y="730"/>
      <point x="299" y="814"/>
      <point x="115" y="814" type="curve"/>
      <point x="94" y="716" type="line"/>
      <point x="301" y="716"/>
      <point x="376" y="692"/>
    </contour>
  </outline>
</glyph>
<glyph name="uniFE29" format="2">
  <unicode hex="FE29"/>
  <anchor x="-57" y="0" name="_bottom"/>
  <outline>
    <contour>
      <point x="-509" y="-206" type="curve"/>
      <point x="-499" y="-206" type="line"/>
      <point x="-466" y="-165"/>
      <point x="-407" y="-137"/>
      <point x="-355" y="-137" type="curve" smooth="yes"/>
      <point x="-245" y="-137"/>
      <point x="-200" y="-150"/>
      <point x="-95" y="-177" type="curve"/>
      <point x="-76" y="-88" type="line"/>
      <point x="-149" y="-67"/>
      <point x="-222" y="-57"/>
      <point x="-288" y="-57" type="curve" smooth="yes"/>
      <point x="-386" y="-57"/>
      <point x="-466" y="-112"/>
    </contour>
  </outline>
</glyph>
<glyph name="uniFE2C" format="2">
  <unicode hex="FE2C"/>
  <anchor x="-57" y="0" name="_bottom"/>
  <outline>
    <contour>
      <point x="-491" y="-179" type="line"/>
      <point x="-94" y="-179" type="line"/>
      <point x="-90" y="-159" type="line"/>
      <point x="-489" y="-159" type="line"/>
    </contour>
  </outline>
</glyph>
<glyph name="Eng.alt3" format="2">
  <advance width="851"/>
  <anchor x="358" y="0" name="bottom"/>
  <anchor x="510" y="714" name="top"/>
  <outline>
    <contour>
      <point x="497" y="-8" type="curve" smooth="yes"/>
      <point x="611" y="-8"/>
      <point x="707" y="20"/>
      <point x="746" y="200" type="curve" smooth="yes"/>
      <point x="805" y="476" type="line" smooth="yes"/>
      <point x="819" y="539"/>
      <point x="824" y="568"/>
      <point x="824" y="593" type="curve" smooth="yes"/>
      <point x="824" y="699"/>
      <point x="739" y="725"/>
      <point x="636" y="725" type="curve" smooth="yes"/>
      <point x="494" y="725"/>
      <point x="433" y="659"/>
      <point x="394" y="597" type="curve"/>
      <point x="391" y="597" type="line"/>
      <point x="378" y="714" type="line"/>
      <point x="124" y="714" type="line"/>
      <point x="123" y="704" type="line"/>
      <point x="136" y="704" type="line" smooth="yes"/>
      <point x="178" y="704"/>
      <point x="208" y="700"/>
      <point x="208" y="674" type="curve" smooth="yes"/>
      <point x="208" y="670"/>
      <point x="206" y="658"/>
      <point x="202" y="641" type="curve" smooth="yes"/>
      <point x="79" y="65" type="line" smooth="yes"/>
      <point x="69" y="18"/>
      <point x="30" y="10"/>
      <point x="-10" y="10" type="curve" smooth="yes"/>
      <point x="-23" y="10" type="line"/>
      <point x="-25" y="0" type="line"/>
      <point x="358" y="0" type="line"/>
      <point x="360" y="10" type="line"/>
      <point x="347" y="10" type="line" smooth="yes"/>
      <point x="305" y="10"/>
      <point x="273" y="14"/>
      <point x="273" y="40" type="curve" smooth="yes"/>
      <point x="273" y="48"/>
      <point x="275" y="53"/>
      <point x="280" y="78" type="curve" smooth="yes"/>
      <point x="376" y="522" type="line" smooth="yes"/>
      <point x="390" y="585"/>
      <point x="453" y="693"/>
      <point x="546" y="693" type="curve" smooth="yes"/>
      <point x="599" y="693"/>
      <point x="628" y="669"/>
      <point x="628" y="618" type="curve" smooth="yes"/>
      <point x="628" y="603"/>
      <point x="626" y="577"/>
      <point x="616" y="530" type="curve" smooth="yes"/>
      <point x="525" y="112" type="line" smooth="yes"/>
      <point x="508" y="36"/>
      <point x="498" y="6"/>
      <point x="450" y="6" type="curve" smooth="yes"/>
      <point x="430" y="6"/>
      <point x="406" y="9"/>
      <point x="389" y="15" type="curve"/>
      <point x="387" y="5" type="line"/>
      <point x="414" y="-2"/>
      <point x="438" y="-8"/>
    </contour>
  </outline>
</glyph>
<glyph name="dieresisacute" format="2">
  <advance width="580"/>
  <outline>
    <contour>
      <point x="357" y="716" type="line"/>
      <point x="370" y="716" type="line"/>
      <point x="418" y="751"/>
      <point x="503" y="822"/>
      <point x="544" y="863" type="curve"/>
      <point x="545" y="871" type="line"/>
      <point x="410" y="871" type="line"/>
      <point x="393" y="815"/>
      <point x="380" y="778"/>
      <point x="357" y="723" type="curve"/>
    </contour>
    <contour>
      <point x="261" y="601" type="curve" smooth="yes"/>
      <point x="289" y="601"/>
      <point x="318" y="620"/>
      <point x="318" y="676" type="curve" smooth="yes"/>
      <point x="318" y="715"/>
      <point x="297" y="735"/>
      <point x="266" y="735" type="curve" smooth="yes"/>
      <point x="230" y="735"/>
      <point x="209" y="705"/>
      <point x="209" y="660" type="curve" smooth="yes"/>
      <point x="209" y="620"/>
      <point x="229" y="601"/>
    </contour>
    <contour>
      <point x="484" y="601" type="curve" smooth="yes"/>
      <point x="512" y="601"/>
      <point x="541" y="620"/>
      <point x="541" y="676" type="curve" smooth="yes"/>
      <point x="541" y="715"/>
      <point x="520" y="735"/>
      <point x="489" y="735" type="curve" smooth="yes"/>
      <point x="453" y="735"/>
      <point x="432" y="705"/>
      <point x="432" y="660" type="curve" smooth="yes"/>
      <point x="432" y="620"/>
      <point x="452" y="601"/>
    </contour>
  </outline>
</glyph>
<glyph name="dieresiscaron" format="2">
  <advance width="580"/>
  <outline>
    <contour>
      <point x="295" y="748" type="curve"/>
      <point x="392" y="748" type="line"/>
      <point x="429" y="793"/>
      <point x="477" y="839"/>
      <point x="512" y="880" type="curve"/>
      <point x="512" y="887" type="line"/>
      <point x="495" y="887" type="line"/>
      <point x="462" y="867"/>
      <point x="379" y="816"/>
      <point x="351" y="802" type="curve"/>
      <point x="304" y="828"/>
      <point x="264" y="859"/>
      <point x="225" y="887" type="curve"/>
      <point x="212" y="887" type="line"/>
      <point x="209" y="879" type="line"/>
      <point x="229" y="847"/>
      <point x="272" y="782"/>
    </contour>
    <contour>
      <point x="225" y="601" type="curve" smooth="yes"/>
      <point x="253" y="601"/>
      <point x="282" y="620"/>
      <point x="282" y="676" type="curve" smooth="yes"/>
      <point x="282" y="715"/>
      <point x="261" y="735"/>
      <point x="230" y="735" type="curve" smooth="yes"/>
      <point x="194" y="735"/>
      <point x="173" y="705"/>
      <point x="173" y="660" type="curve" smooth="yes"/>
      <point x="173" y="620"/>
      <point x="193" y="601"/>
    </contour>
    <contour>
      <point x="448" y="601" type="curve" smooth="yes"/>
      <point x="476" y="601"/>
      <point x="505" y="620"/>
      <point x="505" y="676" type="curve" smooth="yes"/>
      <point x="505" y="715"/>
      <point x="484" y="735"/>
      <point x="453" y="735" type="curve" smooth="yes"/>
      <point x="417" y="735"/>
      <point x="396" y="705"/>
      <point x="396" y="660" type="curve" smooth="yes"/>
      <point x="396" y="620"/>
      <point x="416" y="601"/>
    </contour>
  </outline>
</glyph>
<glyph name="i.sc" format="2">
  <advance width="386"/>
  <anchor x="127" y="0" name="bottom"/>
  <anchor x="249" y="571" name="top"/>
  <anchor x="436" y="571" name="topright"/>
  <outline>
    <contour>
      <point x="-41" y="0" type="line"/>
      <point x="307" y="0" type="line"/>
      <point x="309" y="10" type="line"/>
      <point x="297" y="10" type="line" smooth="yes"/>
      <point x="263" y="10"/>
      <point x="239" y="14"/>
      <point x="239" y="35" type="curve" smooth="yes"/>
      <point x="239" y="40"/>
      <point x="240" y="47"/>
      <point x="243" y="62" type="curve" smooth="yes"/>
      <point x="343" y="525" type="line" smooth="yes"/>
      <point x="350" y="556"/>
      <point x="384" y="561"/>
      <point x="421" y="561" type="curve" smooth="yes"/>
      <point x="431" y="561" type="line"/>
      <point x="433" y="571" type="line"/>
      <point x="84" y="571" type="line"/>
      <point x="82" y="561" type="line"/>
      <point x="93" y="561" type="line" smooth="yes"/>
      <point x="128" y="561"/>
      <point x="153" y="552"/>
      <point x="153" y="531" type="curve" smooth="yes"/>
      <point x="153" y="524"/>
      <point x="151" y="514"/>
      <point x="146" y="494" type="curve" smooth="yes"/>
      <point x="46" y="53" type="line" smooth="yes"/>
      <point x="37" y="15"/>
      <point x="12" y="10"/>
      <point x="-27" y="10" type="curve" smooth="yes"/>
      <point x="-38" y="10" type="line"/>
    </contour>
  </outline>
</glyph>
<glyph name="t.sc" format="2">
  <advance width="605"/>
  <anchor x="251" y="0" name="bottom"/>
  <anchor x="322" y="286" name="center"/>
  <anchor x="383" y="571" name="top"/>
  <anchor x="674" y="571" name="topright"/>
  <outline>
    <contour>
      <point x="101" y="0" type="line"/>
      <point x="426" y="0" type="line"/>
      <point x="429" y="10" type="line" smooth="yes"/>
      <point x="429" y="10" type="line" smooth="yes"/>
      <point x="393" y="10"/>
      <point x="369" y="16"/>
      <point x="369" y="37" type="curve" smooth="yes"/>
      <point x="369" y="45"/>
      <point x="371" y="56"/>
      <point x="376" y="77" type="curve" smooth="yes"/>
      <point x="484" y="561" type="line"/>
      <point x="534" y="561" type="line" smooth="yes"/>
      <point x="619" y="561"/>
      <point x="642" y="543"/>
      <point x="642" y="468" type="curve" smooth="yes"/>
      <point x="642" y="446"/>
      <point x="636" y="398"/>
      <point x="635" y="392" type="curve"/>
      <point x="645" y="392" type="line"/>
      <point x="679" y="571" type="line"/>
      <point x="91" y="571" type="line"/>
      <point x="48" y="392" type="line"/>
      <point x="58" y="392" type="line"/>
      <point x="70" y="433" type="line" smooth="yes"/>
      <point x="102" y="543"/>
      <point x="165" y="561"/>
      <point x="253" y="561" type="curve" smooth="yes"/>
      <point x="285" y="561" type="line"/>
      <point x="175" y="51" type="line" smooth="yes"/>
      <point x="168" y="19"/>
      <point x="143" y="10"/>
      <point x="103" y="10" type="curve"/>
      <point x="103" y="10" type="line"/>
    </contour>
  </outline>
</glyph>
<glyph name="uogonek.loclNAV" format="2">
  <advance width="723"/>
  <anchor x="256" y="-240" name="bottom"/>
  <anchor x="421" y="536" name="top"/>
  <anchor x="764" y="536" name="topright"/>
  <outline>
    <contour>
      <point x="321" y="-240" type="curve" smooth="yes"/>
      <point x="354" y="-240"/>
      <point x="387" y="-234"/>
      <point x="413" y="-224" type="curve"/>
      <point x="414" y="-214" type="line"/>
      <point x="398" y="-219"/>
      <point x="387" y="-222"/>
      <point x="369" y="-222" type="curve" smooth="yes"/>
      <point x="335" y="-222"/>
      <point x="300" y="-196"/>
      <point x="300" y="-126" type="curve" smooth="yes"/>
      <point x="300" y="-43"/>
      <point x="313" y="13"/>
      <point x="350" y="69" type="curve"/>
      <point x="347" y="69" type="line"/>
      <point x="245" y="-17"/>
      <point x="185" y="-72"/>
      <point x="185" y="-138" type="curve" smooth="yes"/>
      <point x="185" y="-204"/>
      <point x="236" y="-240"/>
    </contour>
    <component base="u"/>
  </outline>
</glyph>
